<svg width="32" height="32" viewBox="0 0 32 32" fill="none" xmlns="http://www.w3.org/2000/svg">
  <defs>
    <linearGradient id="shieldGradient" x1="0%" y1="0%" x2="100%" y2="0%">
      <stop offset="0%" style="stop-color:#00D4FF;stop-opacity:1" />
      <stop offset="50%" style="stop-color:#5B73FF;stop-opacity:1" />
      <stop offset="100%" style="stop-color:#FF00FF;stop-opacity:1" />
    </linearGradient>
    <linearGradient id="arrowGradient" x1="0%" y1="0%" x2="100%" y2="0%">
      <stop offset="0%" style="stop-color:#00BFFF;stop-opacity:1" />
      <stop offset="100%" style="stop-color:#8A2BE2;stop-opacity:1" />
    </linearGradient>
  </defs>
  
  <!-- Shield outline -->
  <path d="M16 2L24 5C24 5 24 12 24 16C24 22 16 29 16 29C16 29 8 22 8 16C8 12 8 5 8 5L16 2Z" 
        stroke="url(#shieldGradient)" 
        stroke-width="1.5" 
        fill="none"/>
  
  <!-- Simplified swap symbol -->
  <path d="M12 10C12 10 10 10 10 12C10 14 12 14 12 14L14 14" 
        stroke="url(#arrowGradient)" 
        stroke-width="1.5" 
        fill="none" 
        stroke-linecap="round"/>
  <path d="M13 13L14 14L13 15" 
        stroke="url(#arrowGradient)" 
        stroke-width="1.5" 
        fill="none" 
        stroke-linecap="round"/>
  
  <!-- Dollar sign -->
  <path d="M16 9V11M16 21V23M14 11C14 10.4 14.4 10 15 10H17C17.6 10 18 10.4 18 11C18 11.6 17.6 12 17 12H15C14.4 12 14 12.4 14 13C14 13.6 14.4 14 15 14H17C17.6 14 18 14.4 18 15C18 15.6 17.6 16 17 16H15C14.4 16 14 15.6 14 15" 
        stroke="url(#arrowGradient)" 
        stroke-width="1.5" 
        fill="none" 
        stroke-linecap="round"/>
  
  <!-- Right arrow -->
  <path d="M20 22C20 22 22 22 22 20C22 18 20 18 20 18L18 18" 
        stroke="url(#arrowGradient)" 
        stroke-width="1.5" 
        fill="none" 
        stroke-linecap="round"/>
  <path d="M19 19L18 18L19 17" 
        stroke="url(#arrowGradient)" 
        stroke-width="1.5" 
        fill="none" 
        stroke-linecap="round"/>
</svg>